<svg width="64" height="64" version="1.1" viewBox="0 0 16.933 16.933" xmlns="http://www.w3.org/2000/svg">
 <g fill="#f00">
  <circle cx=".92604" cy=".92604" r=".52487"/>
  <circle cx=".92604" cy="2.7781" r=".64587"/>
  <circle cx=".92604" cy="4.6302" r=".53361"/>
  <circle cx=".92604" cy="6.4823" r=".58485"/>
  <circle cx=".92604" cy="8.3344" r=".56442"/>
  <circle cx=".92604" cy="10.186" r=".32567"/>
  <circle cx="2.7781" cy=".92604" r=".85061"/>
  <circle cx="2.7781" cy="2.7781" r=".85379"/>
  <circle cx="2.7781" cy="4.6302" r=".87465"/>
  <circle cx="2.7781" cy="6.4823" r="1.0881"/>
  <circle cx="2.7781" cy="8.3344" r=".73327"/>
  <circle cx="2.7781" cy="10.186" r=".73221"/>
  <circle cx="2.7781" cy="12.039" r=".13941"/>
  <circle cx="4.6302" cy="8.3344" r=".36592"/>
  <circle cx="4.6302" cy="10.186" r=".82641"/>
  <circle cx="4.6302" cy="12.039" r=".73512"/>
  <circle cx="4.6302" cy="13.891" r=".0081363"/>
  <circle cx="6.4823" cy=".92604" r=".32568"/>
  <circle cx="6.4823" cy="2.7781" r=".5517"/>
  <circle cx="6.4823" cy="4.6302" r=".34572"/>
  <circle cx="6.4823" cy="6.4823" r=".53873"/>
  <circle cx="6.4823" cy="8.3344" r=".5913"/>
  <circle cx="6.4823" cy="10.186" r="1.1335"/>
  <circle cx="6.4823" cy="12.039" r=".87432"/>
  <circle cx="6.4823" cy="13.891" r=".17546"/>
  <circle cx="6.4823" cy="15.743" r=".19689"/>
  <circle cx="8.3344" cy=".92604" r=".80473"/>
  <circle cx="8.3344" cy="2.7781" r=".58975"/>
  <circle cx="8.3344" cy="4.6302" r=".90608"/>
  <circle cx="8.3344" cy="6.4823" r=".71862"/>
  <circle cx="8.3344" cy="8.3344" r="1.0623"/>
  <circle cx="8.3344" cy="10.186" r=".92725"/>
  <circle cx="8.3344" cy="12.039" r=".49488"/>
  <circle cx="8.3344" cy="13.891" r="1.2323"/>
  <circle cx="8.3344" cy="15.743" r="1.2319"/>
  <circle cx="10.186" cy=".92604" r=".28137"/>
  <circle cx="10.186" cy="2.7781" r=".36929"/>
  <circle cx="10.186" cy="4.6302" r=".61339"/>
  <circle cx="10.186" cy="6.4823" r=".45945"/>
  <circle cx="10.186" cy="8.3344" r=".38848"/>
  <circle cx="10.186" cy="10.186" r="1.0396"/>
  <circle cx="10.186" cy="12.039" r="1.0965"/>
  <circle cx="10.186" cy="13.891" r=".28314"/>
  <circle cx="10.186" cy="15.743" r=".42533"/>
  <circle cx="12.039" cy="10.186" r=".87743"/>
  <circle cx="12.039" cy="12.039" r=".5587"/>
  <circle cx="13.891" cy=".92604" r=".73503"/>
  <circle cx="13.891" cy="2.7781" r=".58213"/>
  <circle cx="13.891" cy="4.6302" r=".66777"/>
  <circle cx="13.891" cy="6.4823" r=".92879"/>
  <circle cx="13.891" cy="8.3344" r=".75071"/>
  <circle cx="13.891" cy="10.186" r="1.2749"/>
  <circle cx="13.891" cy="12.039" r=".48733"/>
  <circle cx="15.743" cy=".92604" r=".90015"/>
  <circle cx="15.743" cy="2.7781" r="1.0033"/>
  <circle cx="15.743" cy="4.6302" r=".9676"/>
  <circle cx="15.743" cy="6.4823" r=".91719"/>
  <circle cx="15.743" cy="8.3344" r="1.0037"/>
  <circle cx="15.743" cy="10.186" r=".56303"/>
  <circle cx="15.743" cy="12.039" r=".0032198"/>
 </g>
</svg>
